<svg width="231" height="45" viewBox="0 0 231 45" fill="none" xmlns="http://www.w3.org/2000/svg">
<rect width="41" height="41" rx="3" fill="#FF4F5A"/>
<rect x="15.375" y="10.25" width="21.7812" height="5.125" fill="white"/>
<rect x="15.375" y="19.2188" width="21.7812" height="5.125" fill="white"/>
<rect x="15.375" y="28.1875" width="21.7812" height="5.125" fill="white"/>
<path d="M58.92 36V16.272L51.72 16.632V10.512H72.78V16.632L65.4 16.272V30.24L65.796 33.84L65.4 36H58.92ZM80.7332 36.36C77.8052 36.36 75.5372 35.664 73.9292 34.272C72.3212 32.88 71.5172 30.624 71.5172 27.504C71.5172 24.36 72.3212 22.104 73.9292 20.736C75.5372 19.344 77.8052 18.648 80.7332 18.648C83.7332 18.648 86.0012 19.344 87.5372 20.736C89.0972 22.104 89.8772 24.36 89.8772 27.504C89.8772 30.624 89.0972 32.88 87.5372 34.272C86.0012 35.664 83.7332 36.36 80.7332 36.36ZM80.7332 31.68C81.7172 31.68 82.4012 31.32 82.7852 30.6C83.1692 29.856 83.3612 28.824 83.3612 27.504C83.3612 26.16 83.1692 25.128 82.7852 24.408C82.4012 23.688 81.7172 23.328 80.7332 23.328C79.7252 23.328 79.0172 23.688 78.6092 24.408C78.2252 25.128 78.0332 26.16 78.0332 27.504C78.0332 28.824 78.2252 29.856 78.6092 30.6C79.0172 31.32 79.7252 31.68 80.7332 31.68ZM98.5017 36.36C97.3737 36.36 96.2817 36.072 95.2257 35.496C94.1937 34.92 93.3417 34.008 92.6697 32.76C91.9977 31.512 91.6617 29.88 91.6617 27.864C91.6617 25.632 91.9857 23.844 92.6337 22.5C93.3057 21.156 94.1697 20.184 95.2257 19.584C96.2817 18.96 97.3737 18.648 98.5017 18.648C100.206 18.648 101.406 18.792 102.102 19.08C102.822 19.368 103.182 19.512 103.182 19.512L102.822 12.708L103.182 10.548H109.698V30.24L110.418 33.84L109.698 36.036H103.542V34.272L103.182 34.092C103.182 34.092 103.002 34.284 102.642 34.668C102.282 35.028 101.754 35.4 101.058 35.784C100.362 36.168 99.5097 36.36 98.5017 36.36ZM101.202 31.284L103.182 30.78V25.524C103.182 24.972 103.002 24.54 102.642 24.228C102.282 23.892 101.802 23.724 101.202 23.724C100.314 23.724 99.6417 24.024 99.1857 24.624C98.7297 25.2 98.5017 26.16 98.5017 27.504C98.5017 28.824 98.7657 29.784 99.2937 30.384C99.8217 30.984 100.458 31.284 101.202 31.284ZM121.971 36.36C119.043 36.36 116.775 35.664 115.167 34.272C113.559 32.88 112.755 30.624 112.755 27.504C112.755 24.36 113.559 22.104 115.167 20.736C116.775 19.344 119.043 18.648 121.971 18.648C124.971 18.648 127.239 19.344 128.775 20.736C130.335 22.104 131.115 24.36 131.115 27.504C131.115 30.624 130.335 32.88 128.775 34.272C127.239 35.664 124.971 36.36 121.971 36.36ZM121.971 31.68C122.955 31.68 123.639 31.32 124.023 30.6C124.407 29.856 124.599 28.824 124.599 27.504C124.599 26.16 124.407 25.128 124.023 24.408C123.639 23.688 122.955 23.328 121.971 23.328C120.963 23.328 120.255 23.688 119.847 24.408C119.463 25.128 119.271 26.16 119.271 27.504C119.271 28.824 119.463 29.856 119.847 30.6C120.255 31.32 120.963 31.68 121.971 31.68ZM143.528 36V16.308L142.808 12.708L143.528 10.512H154.256C155.984 10.512 157.64 10.68 159.224 11.016C160.832 11.328 162.26 11.928 163.508 12.816C164.78 13.704 165.776 14.976 166.496 16.632C167.24 18.288 167.612 20.436 167.612 23.076C167.612 25.716 167.24 27.888 166.496 29.592C165.752 31.272 164.744 32.58 163.472 33.516C162.2 34.452 160.76 35.1 159.152 35.46C157.568 35.82 155.936 36 154.256 36H143.528ZM150.08 30.24H154.256C156.368 30.24 157.988 29.688 159.116 28.584C160.244 27.456 160.808 25.62 160.808 23.076C160.808 20.532 160.232 18.768 159.08 17.784C157.952 16.776 156.344 16.272 154.256 16.272H150.08V30.24ZM175.895 36.36C174.863 36.36 173.903 36.216 173.015 35.928C172.151 35.616 171.455 35.088 170.927 34.344C170.399 33.6 170.135 32.568 170.135 31.248C170.135 30.048 170.435 29.052 171.035 28.26C171.635 27.468 172.451 26.88 173.483 26.496C174.515 26.112 175.679 25.92 176.975 25.92C178.223 25.92 179.159 26.064 179.783 26.352C180.407 26.616 180.947 26.892 181.403 27.18L181.655 26.964C181.655 26.244 181.595 25.644 181.475 25.164C181.355 24.684 181.079 24.324 180.647 24.084C180.215 23.82 179.543 23.688 178.631 23.688C177.743 23.688 176.795 23.772 175.787 23.94C174.803 24.084 173.891 24.276 173.051 24.516C172.235 24.732 171.623 24.948 171.215 25.164V19.764C171.959 19.5 173.015 19.26 174.383 19.044C175.775 18.804 177.479 18.684 179.495 18.684C181.655 18.684 183.359 18.96 184.607 19.512C185.879 20.04 186.791 20.82 187.343 21.852C187.895 22.86 188.171 24.072 188.171 25.488V30.276L188.891 33.912L188.171 36.036H182.015V34.272L181.655 34.092C181.463 34.284 181.127 34.56 180.647 34.92C180.167 35.28 179.531 35.616 178.739 35.928C177.947 36.216 176.999 36.36 175.895 36.36ZM178.955 31.644C179.603 31.644 180.155 31.584 180.611 31.464C181.091 31.344 181.439 31.236 181.655 31.14V30.456C181.655 30.144 181.427 29.844 180.971 29.556C180.539 29.268 179.855 29.124 178.919 29.124C177.623 29.124 176.975 29.58 176.975 30.492C176.975 30.876 177.119 31.164 177.407 31.356C177.695 31.548 178.211 31.644 178.955 31.644ZM195.724 17.964L191.152 13.356L195.724 8.784L200.296 13.356L195.724 17.964ZM192.484 36V24.084L191.728 21.204L192.448 19.008H198.964V36H192.484ZM203.032 36L202.996 16.272L202.276 12.672L203.032 10.512H209.512V36H203.032ZM215.3 44.748L210.224 42.948L211.664 37.584L216.704 39.024C217.736 39.024 218.48 38.748 218.936 38.196C219.416 37.668 219.776 36.924 220.016 35.964H216.308L212.348 23.652L211.664 18.972H218.504L220.484 30.852H221.204L223.184 18.972H230.024C230.024 18.972 229.94 19.356 229.772 20.124C229.628 20.868 229.412 21.864 229.124 23.112C228.86 24.36 228.536 25.74 228.152 27.252C227.792 28.74 227.408 30.252 227 31.788C226.592 33.3 226.172 34.692 225.74 35.964C225.092 37.956 224.312 39.6 223.4 40.896C222.512 42.192 221.42 43.152 220.124 43.776C218.828 44.424 217.22 44.748 215.3 44.748Z" fill="#FF4F5A"/>
</svg>
